<svg width="232" height="235" viewBox="0 0 232 235" fill="none" xmlns="http://www.w3.org/2000/svg">
<defs>
<filter id="floor" x="30" y="180" width="180" height="50" filterUnits="userSpaceOnUse" color-interpolation-filters="sRGB"><feGaussianBlur stdDeviation="3.5"/></filter>
<filter id="lift" x="-30%" y="-20%" width="160%" height="160%" color-interpolation-filters="sRGB"><feDropShadow dx="0" dy="5" stdDeviation="5" flood-color="#08041A" flood-opacity="0.32"/></filter>
<filter id="liftS" x="-40%" y="-40%" width="180%" height="180%" color-interpolation-filters="sRGB"><feDropShadow dx="0" dy="3" stdDeviation="3" flood-color="#08041A" flood-opacity="0.3"/></filter>
<radialGradient id="g0" cx="0" cy="0" r="1" gradientUnits="userSpaceOnUse" gradientTransform="translate(104.8 89.36) scale(80.64 99.36)">
<stop stop-color="#D8D4FA"/><stop offset="0.3" stop-color="#B5B7F6"/><stop offset="0.7" stop-color="#8A7EE8"/><stop offset="1" stop-color="#6E60C8"/>
</radialGradient>
<radialGradient id="g1" cx="0" cy="0" r="1" gradientUnits="userSpaceOnUse" gradientTransform="translate(121.6 180.44) scale(61.6 75.9)">
<stop stop-opacity="0"/><stop offset="0.65" stop-opacity="0"/><stop offset="1" stop-color="#3A1850" stop-opacity="0.5"/>
</radialGradient>
<radialGradient id="g2" cx="0" cy="0" r="1" gradientUnits="userSpaceOnUse" gradientTransform="translate(93.6 79.7) scale(31.36 38.64)">
<stop stop-color="white" stop-opacity="0.6"/><stop offset="1" stop-color="white" stop-opacity="0"/>
</radialGradient>
<radialGradient id="g3" cx="0" cy="0" r="1" gradientUnits="userSpaceOnUse" gradientTransform="translate(88.8 74.36) scale(80.64 99.36)">
<stop stop-color="#F0D6F8"/><stop offset="0.3" stop-color="#E5C3F0"/><stop offset="0.7" stop-color="#C48DD8"/><stop offset="1" stop-color="#8E56A8"/>
</radialGradient>
<radialGradient id="g4" cx="0" cy="0" r="1" gradientUnits="userSpaceOnUse" gradientTransform="translate(105.6 165.44) scale(61.6 75.9)">
<stop stop-opacity="0"/><stop offset="0.65" stop-opacity="0"/><stop offset="1" stop-color="#472858" stop-opacity="0.5"/>
</radialGradient>
<radialGradient id="g5" cx="0" cy="0" r="1" gradientUnits="userSpaceOnUse" gradientTransform="translate(77.6 64.7) scale(31.36 38.64)">
<stop stop-color="white" stop-opacity="0.7"/><stop offset="1" stop-color="white" stop-opacity="0"/>
</radialGradient>
<radialGradient id="g6" cx="0" cy="0" r="1" gradientUnits="userSpaceOnUse" gradientTransform="translate(136.4 63.6) scale(20.16 20.16)">
<stop stop-color="#F8ECFC"/><stop offset="0.3" stop-color="#EDD2F5"/><stop offset="0.7" stop-color="#D4A2E6"/><stop offset="1" stop-color="#9C62B8"/>
</radialGradient>
<radialGradient id="g7" cx="0" cy="0" r="1" gradientUnits="userSpaceOnUse" gradientTransform="translate(147.6 52.4) scale(15.4 15.4)">
<stop stop-opacity="0"/><stop offset="0.65" stop-opacity="0"/><stop offset="1" stop-color="#472858" stop-opacity="0.5"/>
</radialGradient>
<radialGradient id="g8" cx="0" cy="0" r="1" gradientUnits="userSpaceOnUse" gradientTransform="translate(136.4 60.8) scale(7.84 7.84)">
<stop stop-color="white" stop-opacity="0.6"/><stop offset="1" stop-color="white" stop-opacity="0"/>
</radialGradient>
<radialGradient id="pill" cx="0" cy="0" r="1" gradientUnits="userSpaceOnUse" gradientTransform="translate(70 94) scale(90 70)">
<stop stop-color="white"/><stop offset="0.5" stop-color="#F0EDF8"/><stop offset="1" stop-color="#D6D1EA"/>
</radialGradient>
<radialGradient id="bdg" cx="0" cy="0" r="1" gradientUnits="userSpaceOnUse" gradientTransform="translate(163.6 35.22) scale(28.6 27.94)">
<stop stop-color="white"/><stop offset="0.5" stop-color="#F0EDF8"/><stop offset="1" stop-color="#D6D1EA"/>
</radialGradient>
<radialGradient id="bdgHi" cx="0" cy="0" r="1" gradientUnits="userSpaceOnUse" gradientTransform="translate(161.4 33.02) scale(12.32 12.1)">
<stop stop-color="white" stop-opacity="0.6"/><stop offset="1" stop-color="white" stop-opacity="0"/>
</radialGradient>
<radialGradient id="glyph" cx="0" cy="0" r="1" gradientUnits="userSpaceOnUse" gradientTransform="translate(164.5 38) scale(15 15.5)">
<stop stop-color="#D8D4FA"/><stop offset="0.35" stop-color="#B5B7F6"/><stop offset="0.7" stop-color="#8A7EE8"/><stop offset="1" stop-color="#6E60C8"/>
</radialGradient>
</defs>
<ellipse cx="108" cy="209" rx="64" ry="9" fill="black" opacity="0.3" filter="url(#floor)"/>
<path d="M79 59H139Q144 59 147.6 62.6L168.4 83.4Q172 87 172 92V178Q172 197 153 197H79Q60 197 60 178V78Q60 59 79 59Z" fill="url(#g0)"/>
<path d="M79 59H139Q144 59 147.6 62.6L168.4 83.4Q172 87 172 92V178Q172 197 153 197H79Q60 197 60 178V78Q60 59 79 59Z" fill="url(#g1)"/>
<path d="M79 59H139Q144 59 147.6 62.6L168.4 83.4Q172 87 172 92V178Q172 197 153 197H79Q60 197 60 178V78Q60 59 79 59Z" fill="url(#g2)"/>
<g filter="url(#lift)">
<path d="M63 44H123Q128 44 131.6 47.6L152.4 68.4Q156 72 156 77V163Q156 182 137 182H63Q44 182 44 163V63Q44 44 63 44Z" fill="url(#g3)"/>
<path d="M63 44H123Q128 44 131.6 47.6L152.4 68.4Q156 72 156 77V163Q156 182 137 182H63Q44 182 44 163V63Q44 44 63 44Z" fill="url(#g4)"/>
<path d="M63 44H123Q128 44 131.6 47.6L152.4 68.4Q156 72 156 77V163Q156 182 137 182H63Q44 182 44 163V63Q44 44 63 44Z" fill="url(#g5)"/>
</g>
<g filter="url(#liftS)">
<path d="M129 47Q130 43 133 46L154 67Q157 70 153 71H137Q129 71 129 63Z" fill="url(#g6)"/>
<path d="M129 47Q130 43 133 46L154 67Q157 70 153 71H137Q129 71 129 63Z" fill="url(#g7)"/>
<path d="M129 47Q130 43 133 46L154 67Q157 70 153 71H137Q129 71 129 63Z" fill="url(#g8)"/>
</g>
<rect x="63" y="100" width="54" height="9" rx="4.5" fill="url(#pill)" opacity="0.95"/>
<rect x="63" y="120" width="72" height="9" rx="4.5" fill="url(#pill)" opacity="0.62"/>
<rect x="63" y="140" width="42" height="9" rx="4.5" fill="url(#pill)" opacity="0.4"/>
<g filter="url(#liftS)">
<circle cx="168" cy="46" r="22" fill="url(#bdg)"/>
</g>
<circle cx="168" cy="46" r="22" fill="url(#bdgHi)"/>
<circle cx="168" cy="40.4" r="5.4" fill="url(#glyph)"/>
<path d="M158.2 56.4C158.2 51.2 162.6 48.2 168 48.2C173.4 48.2 177.8 51.2 177.8 56.4Q177.8 58 176 58H160Q158.2 58 158.2 56.4Z" fill="url(#glyph)"/>

<rect x="22" y="72" width="6" height="6" rx="1.6" fill="#7DE8FF" opacity="0.9" transform="rotate(-20 25 75)"/>
<circle cx="30" cy="176" r="3.4" fill="#FF9AC4"/>
<rect x="186" y="132" width="6" height="6" rx="1.6" fill="#8B7FFF" transform="rotate(18 189 135)"/>
<rect x="180" y="178" width="5" height="5" rx="1.4" fill="#FFD166" opacity="0.85" transform="rotate(-12 182 180)"/>
</svg>
